<svg xmlns="http://www.w3.org/2000/svg" viewBox="0 0 1200 400" width="1200" height="400" role="img" aria-label="RYUEI calibration card: HUD-framed hero panel with test-card language mix and spec-sheet facts">
<style>@keyframes xdrift{0%,100%{transform:translate(0,0)}30%{transform:translate(-9px,7px)}60%{transform:translate(7px,-6px)}}.xhair{animation:xdrift 16s ease-in-out infinite}@media (prefers-reduced-motion:reduce){.xhair{animation:none}}</style>
<rect class="bg" x="0" y="0" width="1200" height="400" fill="#D0D0CE"/>
<rect x="888" y="24" width="136" height="136" fill="none" stroke="#535355" stroke-width="1" opacity="0.5"/>
<line x1="905" y1="24" x2="905" y2="160" stroke="#B9B9B8" stroke-width="0.75"/>
<line x1="888" y1="41" x2="1024" y2="41" stroke="#B9B9B8" stroke-width="0.75"/>
<line x1="922" y1="24" x2="922" y2="160" stroke="#B9B9B8" stroke-width="0.75"/>
<line x1="888" y1="58" x2="1024" y2="58" stroke="#B9B9B8" stroke-width="0.75"/>
<line x1="939" y1="24" x2="939" y2="160" stroke="#B9B9B8" stroke-width="0.75"/>
<line x1="888" y1="75" x2="1024" y2="75" stroke="#B9B9B8" stroke-width="0.75"/>
<line x1="956" y1="24" x2="956" y2="160" stroke="#B9B9B8" stroke-width="0.75"/>
<line x1="888" y1="92" x2="1024" y2="92" stroke="#B9B9B8" stroke-width="0.75"/>
<line x1="973" y1="24" x2="973" y2="160" stroke="#B9B9B8" stroke-width="0.75"/>
<line x1="888" y1="109" x2="1024" y2="109" stroke="#B9B9B8" stroke-width="0.75"/>
<line x1="990" y1="24" x2="990" y2="160" stroke="#B9B9B8" stroke-width="0.75"/>
<line x1="888" y1="126" x2="1024" y2="126" stroke="#B9B9B8" stroke-width="0.75"/>
<line x1="1007" y1="24" x2="1007" y2="160" stroke="#B9B9B8" stroke-width="0.75"/>
<line x1="888" y1="143" x2="1024" y2="143" stroke="#B9B9B8" stroke-width="0.75"/>
<g class="xhair" stroke="#AB0202" stroke-width="1.5"><line x1="947.0" y1="92.0" x2="965.0" y2="92.0"/><line x1="956.0" y1="83.0" x2="956.0" y2="101.0"/><circle cx="956.0" cy="92.0" r="14" fill="none"/></g>
<path d="M1084,-30 A 210 260 0 0 1 1084,430" fill="none" stroke="#C00000" stroke-width="46" stroke-linecap="butt" opacity="0.94"/>
<path d="M68,24 L24,24 L24,68" fill="none" stroke="#535355" stroke-width="2.5"/>
<path d="M68,376 L24,376 L24,332" fill="none" stroke="#535355" stroke-width="2.5"/>
<line x1="88" y1="372" x2="1096" y2="372" stroke="#535355" stroke-width="1" opacity="0.5"/>
<line x1="88" y1="372" x2="88" y2="362" stroke="#535355" stroke-width="1" opacity="0.85"/>
<line x1="120" y1="372" x2="120" y2="367" stroke="#535355" stroke-width="1" opacity="0.45"/>
<line x1="152" y1="372" x2="152" y2="367" stroke="#535355" stroke-width="1" opacity="0.45"/>
<line x1="184" y1="372" x2="184" y2="367" stroke="#535355" stroke-width="1" opacity="0.45"/>
<line x1="216" y1="372" x2="216" y2="367" stroke="#535355" stroke-width="1" opacity="0.45"/>
<line x1="248" y1="372" x2="248" y2="362" stroke="#535355" stroke-width="1" opacity="0.85"/>
<line x1="280" y1="372" x2="280" y2="367" stroke="#535355" stroke-width="1" opacity="0.45"/>
<line x1="312" y1="372" x2="312" y2="367" stroke="#535355" stroke-width="1" opacity="0.45"/>
<line x1="344" y1="372" x2="344" y2="367" stroke="#535355" stroke-width="1" opacity="0.45"/>
<line x1="376" y1="372" x2="376" y2="367" stroke="#535355" stroke-width="1" opacity="0.45"/>
<line x1="408" y1="372" x2="408" y2="362" stroke="#535355" stroke-width="1" opacity="0.85"/>
<line x1="440" y1="372" x2="440" y2="367" stroke="#535355" stroke-width="1" opacity="0.45"/>
<line x1="472" y1="372" x2="472" y2="367" stroke="#535355" stroke-width="1" opacity="0.45"/>
<line x1="504" y1="372" x2="504" y2="367" stroke="#535355" stroke-width="1" opacity="0.45"/>
<line x1="536" y1="372" x2="536" y2="367" stroke="#535355" stroke-width="1" opacity="0.45"/>
<line x1="568" y1="372" x2="568" y2="362" stroke="#535355" stroke-width="1" opacity="0.85"/>
<line x1="600" y1="372" x2="600" y2="367" stroke="#535355" stroke-width="1" opacity="0.45"/>
<line x1="632" y1="372" x2="632" y2="367" stroke="#535355" stroke-width="1" opacity="0.45"/>
<line x1="664" y1="372" x2="664" y2="367" stroke="#535355" stroke-width="1" opacity="0.45"/>
<line x1="696" y1="372" x2="696" y2="367" stroke="#535355" stroke-width="1" opacity="0.45"/>
<line x1="728" y1="372" x2="728" y2="362" stroke="#535355" stroke-width="1" opacity="0.85"/>
<line x1="760" y1="372" x2="760" y2="367" stroke="#535355" stroke-width="1" opacity="0.45"/>
<line x1="792" y1="372" x2="792" y2="367" stroke="#535355" stroke-width="1" opacity="0.45"/>
<line x1="824" y1="372" x2="824" y2="367" stroke="#535355" stroke-width="1" opacity="0.45"/>
<line x1="856" y1="372" x2="856" y2="367" stroke="#535355" stroke-width="1" opacity="0.45"/>
<line x1="888" y1="372" x2="888" y2="362" stroke="#535355" stroke-width="1" opacity="0.85"/>
<line x1="920" y1="372" x2="920" y2="367" stroke="#535355" stroke-width="1" opacity="0.45"/>
<line x1="952" y1="372" x2="952" y2="367" stroke="#535355" stroke-width="1" opacity="0.45"/>
<line x1="984" y1="372" x2="984" y2="367" stroke="#535355" stroke-width="1" opacity="0.45"/>
<line x1="1016" y1="372" x2="1016" y2="367" stroke="#535355" stroke-width="1" opacity="0.45"/>
<line x1="1048" y1="372" x2="1048" y2="362" stroke="#535355" stroke-width="1" opacity="0.85"/>
<line x1="1080" y1="372" x2="1080" y2="367" stroke="#535355" stroke-width="1" opacity="0.45"/>
<g transform="translate(64,224)"><path d="M12.768 0.0V-122.64H51.576Q63.84 -122.64 72.828 -118.10400000000001Q81.816 -113.56800000000001 86.856 -105.42000000000002Q91.896 -97.272 91.896 -86.18400000000001Q91.896 -74.08800000000001 85.76400000000001 -64.84800000000001Q79.632 -55.608000000000004 69.21600000000001 -51.744L93.57600000000001 0.0H70.056L48.720000000000006 -48.720000000000006H33.768V0.0ZM33.768 -67.2H51.576Q60.480000000000004 -67.2 65.52000000000001 -72.072Q70.56 -76.944 70.56 -85.512Q70.56 -94.248 65.52000000000001 -99.20400000000001Q60.480000000000004 -104.16000000000001 51.576 -104.16000000000001H33.768Z M144.616 0.0V-44.52L108.66400000000002 -122.64H130.67200000000003L149.824 -80.13600000000001Q152.008 -75.096 153.52 -70.224Q155.032 -65.352 155.536 -62.664Q156.20800000000003 -65.352 157.63600000000002 -70.224Q159.06400000000002 -75.096 161.24800000000002 -80.13600000000001L179.89600000000002 -122.64H201.73600000000002L165.78400000000002 -44.52V0.0Z M260.0 1.6800000000000002Q242.02400000000003 1.6800000000000002 231.86 -8.148000000000001Q221.69600000000003 -17.976000000000003 221.69600000000003 -34.944V-122.64H242.86400000000003V-35.112Q242.86400000000003 -26.376 247.23200000000003 -21.504Q251.60000000000002 -16.632 260.0 -16.632Q268.232 -16.632 272.684 -21.504Q277.136 -26.376 277.136 -35.112V-122.64H298.30400000000003V-34.944Q298.30400000000003 -17.976000000000003 288.22400000000005 -8.148000000000001Q278.144 1.6800000000000002 260.0 1.6800000000000002Z M329.184 0.0V-122.64H402.76800000000003V-104.328H349.848V-72.408H396.88800000000003V-54.264H349.848V-18.312H402.76800000000003V0.0Z M434.32000000000005 0.0V-18.48H459.0160000000001V-104.16000000000001H434.32000000000005V-122.64H504.88000000000005V-104.16000000000001H480.184V-18.48H504.88000000000005V0.0Z" fill="none" stroke="#1F1F23" stroke-width="3.5" stroke-linejoin="round"/></g>
<text x="64" y="238" font-family="JetBrains Mono, ui-monospace, SFMono-Regular, monospace" font-size="10" letter-spacing="0.4" fill="#535355" opacity="0.85">CALIBRATION: LANGUAGE MIX -- UNWEIGHTED AVG. ACROSS 4 PINNED PUBLIC REPOS, VIA GITHUB SIDEBAR (LOUIXS)</text>
<g>
<rect x="64.0" y="252" width="261.4" height="56" fill="#C0C000"/>
<rect x="325.4" y="252" width="187.6" height="56" fill="#00C0C0"/>
<rect x="513.0" y="252" width="176.2" height="56" fill="#00C000"/>
<rect x="689.2" y="252" width="10.8" height="56" fill="#C000C0"/>
<rect x="64" y="252" width="636" height="56" fill="none" stroke="#1F1F23" stroke-width="1" opacity="0.35"/>
<line x1="64.0" y1="308" x2="64.0" y2="314" stroke="#535355" stroke-width="1"/>
<line x1="325.4" y1="308" x2="325.4" y2="314" stroke="#535355" stroke-width="1"/>
<line x1="513.0" y1="308" x2="513.0" y2="314" stroke="#535355" stroke-width="1"/>
<line x1="689.2" y1="308" x2="689.2" y2="314" stroke="#535355" stroke-width="1"/>
<line x1="700.0" y1="308" x2="700.0" y2="314" stroke="#535355" stroke-width="1"/>
</g>
<text x="64.0" y="328" font-family="JetBrains Mono, ui-monospace, SFMono-Regular, monospace" font-size="10.5" letter-spacing="0.5" fill="#535355">JAVASCRIPT 41.1%</text>
<text x="325.4" y="328" font-family="JetBrains Mono, ui-monospace, SFMono-Regular, monospace" font-size="10.5" letter-spacing="0.5" fill="#535355">TYPESCRIPT 29.5%</text>
<text x="513.0" y="328" font-family="JetBrains Mono, ui-monospace, SFMono-Regular, monospace" font-size="10.5" letter-spacing="0.5" fill="#535355">SHELL 27.7%</text>
<text x="689.2" y="328" font-family="JetBrains Mono, ui-monospace, SFMono-Regular, monospace" font-size="10.5" letter-spacing="0.5" fill="#535355">COFFEESCRIPT 1.7%</text>
<text x="64" y="46" font-family="JetBrains Mono, ui-monospace, SFMono-Regular, monospace" font-size="12" letter-spacing="1.5" fill="#535355">AGENT INFRA · 10YX</text><text x="64" y="342" font-family="JetBrains Mono, ui-monospace, SFMono-Regular, monospace" font-size="12" letter-spacing="1.5" fill="#535355">OSS: ONEBREATH · TSUSHIN · UBERSICHT_GCAL · UBERSICHT_GMAIL</text>
<text x="900" y="190" font-family="JetBrains Mono, ui-monospace, SFMono-Regular, monospace" font-size="12" letter-spacing="1.5" fill="#535355">41 REPOS</text>
<text x="900" y="206" font-family="JetBrains Mono, ui-monospace, SFMono-Regular, monospace" font-size="12" letter-spacing="1.5" fill="#535355">22 FOLLOWERS</text>
<text x="900" y="222" font-family="JetBrains Mono, ui-monospace, SFMono-Regular, monospace" font-size="12" letter-spacing="1.5" fill="#535355">4 PINNED / PUBLIC</text>
<text x="900" y="240" font-family="JetBrains Mono, ui-monospace, SFMono-Regular, monospace" font-size="10" letter-spacing="1" fill="#535355" opacity="0.7">CAL 2026-07-22</text>
<text x="64" y="72" font-family="JetBrains Mono, ui-monospace, SFMono-Regular, monospace" font-size="12" letter-spacing="3" fill="#AB0202">GITHUB / LOUIXS</text>
</svg>