<svg xmlns="http://www.w3.org/2000/svg" viewBox="0 0 1200 160" width="1200" height="160" role="img" aria-label="Projects spec-sheet header: labeled columns and signal ports">
<rect x="0" y="0" width="1200" height="160" fill="#D0D0CE"/>
<line x1="24" y1="16" x2="1176" y2="16" stroke="#535355" stroke-width="1.5"/>
<line x1="24" y1="16" x2="24" y2="34" stroke="#535355" stroke-width="1.5"/>
<line x1="1176" y1="16" x2="1176" y2="34" stroke="#535355" stroke-width="1.5"/>
<text x="64" y="76" font-family="JetBrains Mono, monospace" font-weight="700" font-size="34" letter-spacing="1" fill="#1F1F23">PROJECT SPEC SHEET</text>
<text x="64" y="96" font-family="JetBrains Mono, monospace" font-size="11" letter-spacing="1.5" fill="#AB0202">SHIPPED · LIVE DATA BELOW</text>
<rect x="1010" y="44" width="28" height="28" fill="none" stroke="#535355" stroke-width="1.5"/>
<circle cx="1024.0" cy="58.0" r="4" fill="#C0C000"/>
<text x="1024.0" y="88" text-anchor="middle" font-family="JetBrains Mono, monospace" font-size="9" letter-spacing="1" fill="#535355">SRC</text>
<rect x="1056" y="44" width="28" height="28" fill="none" stroke="#535355" stroke-width="1.5"/>
<circle cx="1070.0" cy="58.0" r="4" fill="#00C0C0"/>
<text x="1070.0" y="88" text-anchor="middle" font-family="JetBrains Mono, monospace" font-size="9" letter-spacing="1" fill="#535355">SIG</text>
<rect x="1102" y="44" width="28" height="28" fill="none" stroke="#535355" stroke-width="1.5"/>
<circle cx="1116.0" cy="58.0" r="4" fill="#00C000"/>
<text x="1116.0" y="88" text-anchor="middle" font-family="JetBrains Mono, monospace" font-size="9" letter-spacing="1" fill="#535355">OUT</text>
<line x1="64" y1="98" x2="64" y2="122" stroke="#535355" stroke-width="1" opacity="0.6"/>
<text x="64" y="140" font-family="JetBrains Mono, monospace" font-size="11" letter-spacing="2" fill="#535355">LABEL</text>
<line x1="420" y1="98" x2="420" y2="122" stroke="#535355" stroke-width="1" opacity="0.6"/>
<text x="420" y="140" font-family="JetBrains Mono, monospace" font-size="11" letter-spacing="2" fill="#535355">KIND</text>
<line x1="660" y1="98" x2="660" y2="122" stroke="#535355" stroke-width="1" opacity="0.6"/>
<text x="660" y="140" font-family="JetBrains Mono, monospace" font-size="11" letter-spacing="2" fill="#535355">SIGNAL</text>
<line x1="900" y1="98" x2="900" y2="122" stroke="#535355" stroke-width="1" opacity="0.6"/>
<text x="900" y="140" font-family="JetBrains Mono, monospace" font-size="11" letter-spacing="2" fill="#535355">NOTE</text>
<line x1="24" y1="144" x2="1176" y2="144" stroke="#535355" stroke-width="1"/>
</svg>